<?xml version="1.0" encoding="UTF-8"?> <svg xmlns="http://www.w3.org/2000/svg" id="Layer_2" data-name="Layer 2" viewBox="0 0 1279 217.7"><g id="_Слой_1" data-name="Слой 1"><path d="m61.38,214.23c-12.74,0-22.44-3.33-29.1-10-6.66-6.67-9.99-16.15-10-28.45v-82.85H0v-29.82h11.58c5.6,0,9.41-1.3,11.43-3.91,2-2.61,3-6.51,3-11.73v-25.76h33.29v41.4h31v29.82h-31v91.46h28.7v29.83h-26.62Z"></path><path d="m119.7,0h37.1v88.3h1.45c2.99-7.97,8.03-15.01,14.62-20.41,6.67-5.5,15.88-8.25,27.65-8.25,15.63,0,27.59,5.11,35.9,15.34,8.31,10.23,12.46,24.8,12.45,43.71v95.54h-37.07v-91.77c0-10.81-1.93-18.92-5.79-24.32s-10.23-8.1-19.11-8.11c-3.77-.01-7.53.52-11.15,1.59-3.42.99-6.65,2.55-9.55,4.63-2.77,2-5.09,4.57-6.8,7.53-1.81,3.24-2.71,6.9-2.61,10.61v99.88h-37.09V0Z"></path><path d="m344.97,217.7c-11.2,0-21.2-1.88-30-5.65-8.52-3.58-16.13-9.02-22.27-15.92-6.3-7.27-11.06-15.74-14-24.9-3.42-10.61-5.09-21.7-4.94-32.84-.15-10.99,1.47-21.94,4.78-32.42,2.87-9.09,7.55-17.51,13.75-24.75,6.04-6.89,13.56-12.34,22-15.92,9.35-3.89,19.4-5.82,29.53-5.65,11.77,0,22,2.03,30.69,6.08,8.32,3.77,15.65,9.42,21.42,16.5,5.71,7.17,9.99,15.37,12.59,24.16,2.85,9.53,4.27,19.44,4.2,29.39v12.16h-100.46v3.74c0,10.92,3.09,19.69,9.26,26.3,6.17,6.61,15.34,9.92,27.5,9.93,9.26,0,16.84-1.92,22.73-5.75,6.04-3.97,11.38-8.92,15.78-14.66l20,22.35c-6.17,8.7-14.61,15.52-25.32,20.47s-23.12,7.41-37.24,7.38Zm-.58-130.31c-9.84,0-17.66,3.28-23.45,9.84-5.79,6.56-8.69,15.05-8.69,25.48v2.32h61.95v-2.61c0-10.42-2.56-18.86-7.67-25.33-5.11-6.47-12.49-9.7-22.14-9.7Z"></path><path d="m935.21,214.23c-12.74,0-22.1-3.18-28.08-9.55-5.98-6.37-8.98-15.34-9-26.92V0h37.06v184.39h20v29.82l-19.98.02Z"></path><path d="m1092.09,214.23c-8.11,0-14.53-2.36-19.25-7.09s-7.66-11.06-8.82-19h-1.74c-2.51,9.84-7.62,17.22-15.34,22.15-7.72,4.93-17.27,7.39-28.66,7.38-15.44,0-27.31-4.04-35.61-12.12-8.3-8.08-12.45-18.85-12.45-32.32,0-15.58,5.6-27.17,16.79-34.77s27.12-11.4,47.77-11.4h25.77v-11c0-8.49-2.22-15.06-6.66-19.69-4.44-4.63-11.58-6.97-21.43-7-8.67,0-15.67,1.88-21,5.65-5.23,3.68-9.78,8.23-13.45,13.46l-22-19.8c5.61-8.74,13.26-15.99,22.29-21.11,9.26-5.33,21.52-8,36.77-8,20.46,0,36,4.62,46.61,13.86,10.61,9.24,15.92,22.56,15.93,39.96v71h15v29.82h-20.57l.05.02Zm-61.39-23.45c8.31,0,15.35-1.82,21.13-5.46,5.78-3.64,8.68-9.01,8.69-16.1v-19.83h-23.72c-19.3,0-28.95,6.13-28.95,18.4v4.89c0,6.13,1.98,10.69,5.94,13.66,3.91,2.95,9.6,4.44,16.91,4.44Z"></path><path d="m1139.75,0h37.06v88h1.16c2.55-8.48,7.97-15.8,15.34-20.7,7.53-5.11,16.31-7.66,26.34-7.67,19.33,0,34.05,6.8,44.15,20.41,10.1,13.61,15.17,33.06,15.2,58.35,0,25.48-5.07,45.07-15.2,58.77-10.13,13.7-24.83,20.55-44.1,20.54-10.05,0-18.79-2.61-26.2-7.82-7.31-5.06-12.76-12.38-15.49-20.84h-1.16v25.19h-37.15V0h.05Zm68,187c9.65,0,17.47-3.18,23.45-9.55,5.98-6.37,8.98-14.96,9-25.77v-26.05c0-10.81-3-19.45-9-25.91-6-6.46-13.82-9.69-23.45-9.7-8.88,0-16.26,2.22-22.15,6.66-5.7,4.07-9,10.71-8.8,17.71v48c0,7.92,2.94,14,8.83,18.24s13.27,6.37,22.15,6.38h-.03Z"></path><path d="m640.04,71.08l-48,138c-.92,2.64-3.41,4.42-6.21,4.41h-1.64c-3.93,0-7.12-3.19-7.12-7.12,0-.82.14-1.64.42-2.41l12.92-34.81c1.26-3.4-.47-7.18-3.87-8.45-.73-.27-1.51-.41-2.29-.41h-74.84c-3.63,0-6.57-2.94-6.57-6.57,0-.03,0-.05,0-.08l.19-16.51c.04-3.6,2.97-6.5,6.57-6.49h85.59c5,0,9.42-3.24,10.94-8l4-12.32c1.12-3.45-.77-7.16-4.22-8.28-.66-.21-1.34-.32-2.03-.32h-164.54c-3.63,0-6.57-2.94-6.57-6.57h0v-26.22c0-3.63,2.94-6.57,6.57-6.57h194.49c3.62,0,6.57,2.92,6.58,6.54,0,.74-.12,1.48-.37,2.18Z"></path><path d="m858.45,74.83c-7.73-7.9-18.32-12.34-29.37-12.33h-134.58c-11.4,0-22.33,4.55-30.35,12.65-7.21,7.2-11.43,16.87-11.8,27.06-.41,10.72,3.4,21.17,10.6,29.11-5.83,1.01-11.39,3.21-16.33,6.47-18.94,12.41-24.23,37.83-11.81,56.77,7.61,11.61,20.57,18.58,34.44,18.52h134.57c11.41,0,22.34-4.57,30.35-12.69,7.2-7.19,11.42-16.83,11.8-27,.41-10.72-3.4-21.17-10.6-29.11,5.83-1.01,11.39-3.22,16.33-6.49,18.91-12.27,24.29-37.55,12.02-56.46-1.53-2.35-3.29-4.55-5.27-6.54v.04Zm-36.75,84.12c-.67,6.59-6.57,11.42-13.2,11.42h-142.97c-6.09,0-11.7-4.08-12.93-10-1.47-6.89,2.92-13.66,9.8-15.13.77-.17,1.56-.26,2.36-.28h144.53c7.02.13,12.6,5.92,12.47,12.94,0,.35-.03.7-.06,1.05Zm11.9-28.29h-144.57c-7.01-.16-12.57-5.97-12.41-12.98,0-.34.03-.68.06-1.02.66-6.59,6.57-11.42,13.2-11.42h142.92c6.09,0,11.7,4.08,12.93,10.05,1.45,6.88-2.95,13.64-9.83,15.1-.77.16-1.55.25-2.33.27h.03Z"></path></g></svg> 