<?xml version="1.0" ?><svg viewBox="0 0 22.618 22.622" xmlns="http://www.w3.org/2000/svg"><g data-name="Layer 2" id="Layer_2"><g data-name="Layer 1" id="Layer_1-2"><path d="M18.907.84A1.923,1.923,0,0,0,17.652,0a1.041,1.041,0,0,0-1.008,1.381.992.992,0,0,0-1.09.427c-.355.463-.051,1.169.452,2.339a22.127,22.127,0,0,1,1.017,2.742,1.661,1.661,0,0,0-.709,1.365c.053,3.152-.26,3.685-.623,4.3-.457.779-.976,1.663-.978,6.808l-.454,2.856a.344.344,0,0,0,.339.4h6.174a.344.344,0,0,0,.339-.289l.453-2.853C21.762,18.882,25.047,8.573,18.907.84Zm-2.27,3.042c-.287-.8-.918-1.729-.246-1.844a.964.964,0,0,1,.732.614,25.542,25.542,0,0,1,1.408,4.061,1.9,1.9,0,0,0-.858-.04A22.75,22.75,0,0,0,16.637,3.882Zm3.841,18.054H15l.349-2.2h5.478Zm.5-2.882H15.4c.021-4.679.478-5.458.883-6.146.415-.707.774-1.317.718-4.674a.928.928,0,0,1,1.16-.9c1.117.267,1.084,2.657.723,5.8a.343.343,0,0,0,.68.088c.765-4.513-.652-7.99-1.809-10.834-.336-.894-.824-1.577-.136-1.695.291.013.628.406.736.559C23.919,8.255,21.455,17.486,20.978,19.054ZM16.527,20.5a.343.343,0,0,1,0,.685A.343.343,0,0,1,16.527,20.5Zm-9.6-7.934c-.362-.618-.676-1.151-.624-4.289a1.653,1.653,0,0,0-.707-1.379A22.2,22.2,0,0,1,6.609,4.151c.5-1.17.807-1.876.452-2.339A.976.976,0,0,0,5.97,1.39,1.043,1.043,0,0,0,4.963,0,1.907,1.907,0,0,0,3.722.822c-6.153,7.75-2.868,18.06-2.67,18.657l.453,2.853a.342.342,0,0,0,.339.289H8.017a.344.344,0,0,0,.339-.4L7.9,19.369C7.9,14.224,7.382,13.34,6.924,12.561Zm-.7-10.523c.671.114.04,1.048-.247,1.844A22.915,22.915,0,0,0,4.942,6.673a1.893,1.893,0,0,0-.857.04A25.542,25.542,0,0,1,5.493,2.652.933.933,0,0,1,6.225,2.038ZM4.274,1.229C4.48.98,4.95.392,5.317.871c.125.148-.157.811-.456,1.512C3.7,5.239,2.288,8.694,3.052,13.217a.343.343,0,0,0,.68-.088c-.4-3.116-.191-4.493.072-5.166.243-.605.55-.624.651-.63a.928.928,0,0,1,1.16.913c-.057,3.345.3,3.955.717,4.662.405.688.863,1.467.884,6.146H1.637C1.16,17.487-1.308,8.261,4.274,1.229ZM2.137,21.936l-.349-2.2H7.267l.348,2.2Zm1.205-.756a.343.343,0,0,1,0-.685A.343.343,0,0,1,3.342,21.18ZM11.562.116a.354.354,0,0,0-.509,0,11.47,11.47,0,0,0-.089,14.973V19.08a.344.344,0,0,0,.687,0V15.089A11.469,11.469,0,0,0,11.562.116Zm-.254,4.457a.343.343,0,0,0-.344.343v9.078A10.809,10.809,0,0,1,11.308.868a10.811,10.811,0,0,1,.343,13.126V4.916A.343.343,0,0,0,11.308,4.573Z" data-name="save the planet" id="save_the_planet"/></g></g></svg>